<svg width="116" height="102" viewBox="0 0 116 102" fill="none" xmlns="http://www.w3.org/2000/svg">
<path d="M51.9663 40.9748C55.338 39.0834 60.8046 39.0834 64.1763 40.9748L109.388 66.3372C112.759 68.2287 112.759 71.2953 109.388 73.1867L64.1763 98.5492C60.8046 100.441 55.338 100.441 51.9663 98.5492L6.75502 73.1867C3.38332 71.2953 3.38332 68.2287 6.75501 66.3372L51.9663 40.9748Z" fill="#3F72AF"/>
<path d="M51.9663 22.3007C55.338 20.4093 60.8046 20.4093 64.1763 22.3007L109.388 47.6632C112.759 49.5546 112.759 52.6212 109.388 54.5127L64.1763 79.8751C60.8046 81.7665 55.338 81.7665 51.9663 79.8751L6.75502 54.5127C3.38332 52.6212 3.38332 49.5546 6.75501 47.6632L51.9663 22.3007Z" fill="#DBE2EF"/>
<path d="M51.9663 3.62739C55.338 1.73595 60.8046 1.73595 64.1763 3.62739L109.388 28.9898C112.759 30.8813 112.759 33.9479 109.388 35.8393L64.1763 61.2017C60.8046 63.0932 55.338 63.0932 51.9663 61.2017L6.75502 35.8393C3.38332 33.9479 3.38332 30.8813 6.75501 28.9898L51.9663 3.62739Z" fill="#3F72AF"/>
<path d="M44.0565 40.2106C43.4963 40.2106 42.8054 40.0332 41.9838 39.6784C41.1808 39.3236 40.2285 38.8474 39.1267 38.2499L38.5665 37.9418L37.7822 37.5216C36.1389 36.6626 34.9252 35.9904 34.1409 35.5049C33.3566 35.0007 32.7404 34.4592 32.2922 33.8803C31.8627 33.2827 31.6479 32.5825 31.6479 31.7795C31.6479 30.9765 31.8627 30.2856 32.2922 29.7067C32.7404 29.1092 33.3566 28.5676 34.1409 28.0821C34.9252 27.5779 36.1389 26.8964 37.7822 26.0374L38.5665 25.6172L39.1267 25.3091C40.2285 24.7115 41.1808 24.2354 41.9838 23.8806C42.8054 23.5258 43.4963 23.3484 44.0565 23.3484C44.7661 23.3484 45.345 23.5818 45.7932 24.0486C46.26 24.4968 46.4935 25.0383 46.4935 25.6732C46.4935 26.1401 46.3441 26.5976 46.0453 27.0457C45.7652 27.4752 45.345 27.83 44.7848 28.1101L37.4741 31.7795L44.7848 35.4489C45.345 35.729 45.7652 36.0838 46.0453 36.5132C46.3254 36.9241 46.4654 37.3629 46.4654 37.8297C46.4654 38.4646 46.232 39.0248 45.7652 39.5104C45.317 39.9772 44.7475 40.2106 44.0565 40.2106Z" fill="#F9F7F7"/>
<path d="M54.5983 31.4434C54.6543 31.2566 54.7477 30.8832 54.8784 30.323C55.4946 27.9514 56.0175 26.0934 56.447 24.7489C56.8951 23.3857 57.3993 22.256 57.9595 21.3596C58.5384 20.4633 59.1827 20.0151 59.8923 20.0151C60.5645 20.0151 61.0594 20.2579 61.3768 20.7434C61.7129 21.2289 61.881 21.8171 61.881 22.5081C61.881 23.2177 61.7129 24.3287 61.3768 25.8413C61.0594 27.3352 60.4898 29.6507 59.6682 32.7879C58.8279 35.9811 58.1743 38.3153 57.7074 39.7905C57.2406 41.2657 56.7644 42.3674 56.2789 43.0957C55.8121 43.824 55.2519 44.1881 54.5983 44.1881C54.0194 44.1881 53.5246 43.992 53.1137 43.5999C52.7216 43.2264 52.5255 42.5728 52.5255 41.6391C52.5255 40.7241 52.6843 39.4823 53.0017 37.9138C53.3378 36.3452 53.87 34.1884 54.5983 31.4434Z" fill="#F9F7F7"/>
<path d="M70.3342 40.2106C69.6433 40.2106 69.0644 39.9772 68.5976 39.5104C68.1494 39.0248 67.9253 38.4646 67.9253 37.8297C67.9253 37.3629 68.0654 36.9241 68.3455 36.5132C68.6256 36.0838 69.0457 35.729 69.606 35.4489L76.9167 31.7795L69.606 28.1101C69.0457 27.83 68.6163 27.4752 68.3175 27.0457C68.0374 26.5976 67.8973 26.1401 67.8973 25.6732C67.8973 25.0383 68.1214 24.4968 68.5696 24.0486C69.0364 23.5818 69.6246 23.3484 70.3342 23.3484C70.8944 23.3484 71.576 23.5258 72.379 23.8806C73.2006 24.2354 74.1623 24.7115 75.264 25.3091L75.8243 25.6172L76.6085 26.0374C78.2518 26.8964 79.4656 27.5779 80.2499 28.0821C81.0342 28.5676 81.6411 29.1092 82.0706 29.7067C82.5187 30.2856 82.7428 30.9765 82.7428 31.7795C82.7428 32.5825 82.5187 33.2827 82.0706 33.8803C81.6411 34.4592 81.0342 35.0007 80.2499 35.5049C79.4656 35.9904 78.2518 36.6626 76.6085 37.5216L75.8243 37.9418L75.264 38.2499C74.1623 38.8474 73.2006 39.3236 72.379 39.6784C71.576 40.0332 70.8944 40.2106 70.3342 40.2106Z" fill="#F9F7F7"/>
</svg>
